<svg width="65" height="64" viewBox="0 0 65 64" fill="none" xmlns="http://www.w3.org/2000/svg">
<path d="M41.7929 18.6858C42.8342 17.6447 44.5221 17.6447 45.5635 18.6858C46.6049 19.7271 46.6057 21.4158 45.5644 22.4573L36.0205 32.0012L45.5635 41.5442C46.6047 42.5856 46.6039 44.2744 45.5625 45.3157C44.5211 46.3566 42.8332 46.3567 41.792 45.3157L32.25 35.7727L22.709 45.3157C21.6676 46.3569 19.9789 46.3569 18.9375 45.3157C17.896 44.2743 17.8962 42.5856 18.9375 41.5442L28.4785 32.0012L18.9365 22.4573C17.8952 21.4158 17.8952 19.7271 18.9365 18.6858C19.9779 17.6445 21.6666 17.6444 22.708 18.6858L32.25 28.2287L41.7929 18.6858Z" fill="#7C7E92" fill-opacity="0.56"/>
<circle cx="32.25" cy="32" r="29.335" stroke="#7C7E92" stroke-opacity="0.56" stroke-width="5.33"/>
</svg>
