<svg width="24" height="24" viewBox="0 0 24 24" fill="none" xmlns="http://www.w3.org/2000/svg">
<path d="M5.80664 14.25C4.24293 14.25 3 13.0049 3 11.5C3 9.99513 4.24293 8.75 5.80664 8.75C7.37021 8.75016 8.6123 9.99523 8.61231 11.5C8.6123 13.0048 7.37021 14.2498 5.80664 14.25Z" stroke="white" stroke-width="2"/>
<path d="M15.1934 4C16.7571 4 18 5.24513 18 6.75C18 8.25487 16.7571 9.5 15.1934 9.5C13.6298 9.49984 12.3877 8.25477 12.3877 6.75C12.3877 5.24523 13.6298 4.00016 15.1934 4Z" stroke="white" stroke-width="2"/>
<path d="M15.1934 14.5C16.7571 14.5 18 15.7451 18 17.25C18 18.7549 16.7571 20 15.1934 20C13.6298 19.9998 12.3877 18.7548 12.3877 17.25C12.3877 15.7452 13.6298 14.5002 15.1934 14.5Z" stroke="white" stroke-width="2"/>
<path d="M13.1807 8.8515C13.651 8.5619 13.7975 7.94591 13.5079 7.47564C13.2183 7.00537 12.6023 6.85891 12.132 7.1485L13.1807 8.8515ZM12.132 7.1485L8.07232 9.6485L9.12104 11.3515L13.1807 8.8515L12.132 7.1485Z" fill="white"/>
<path d="M12.657 16L8.08984 12.5" stroke="white" stroke-width="2"/>
</svg>
